<?xml version="1.0" standalone="no"?>
<!DOCTYPE svg PUBLIC "-//W3C//DTD SVG 20010904//EN"
 "http://www.w3.org/TR/2001/REC-SVG-20010904/DTD/svg10.dtd">
<svg version="1.0" xmlns="http://www.w3.org/2000/svg"
 width="1600.000000pt" height="1600.000000pt" viewBox="0 0 1600.000000 1600.000000"
 preserveAspectRatio="xMidYMid meet">

<g transform="translate(0.000000,1600.000000) scale(0.100000,-0.100000)"
fill="#000000" stroke="none">
<path d="M0 8000 l0 -8000 7375 0 7375 0 0 125 0 125 495 0 495 0 0 -125 0
-125 130 0 130 0 0 8000 0 8000 -8000 0 -8000 0 0 -8000z m6220 1665 c39 -20
53 -49 46 -91 -14 -70 -104 -99 -151 -48 -13 14 -27 35 -31 46 -9 28 15 76 45
93 34 18 55 18 91 0z m2166 -16 c31 -29 32 -84 3 -119 -18 -20 -30 -25 -71
-25 -41 0 -52 4 -68 25 -22 28 -26 87 -7 111 34 44 101 48 143 8z m1491 -6
c66 -81 -23 -177 -117 -128 -34 17 -45 50 -36 100 13 68 107 85 153 28z m-829
-76 c9 -6 12 -53 12 -176 0 -137 3 -171 15 -181 10 -8 58 -12 157 -11 79 0
149 -3 156 -8 8 -5 12 -23 10 -47 l-3 -39 -145 -2 c-80 -2 -155 -5 -167 -8
l-23 -5 0 -688 c1 -558 3 -698 15 -747 28 -116 78 -150 223 -150 80 0 95 -3
104 -18 17 -31 2 -64 -33 -71 -52 -10 -170 -6 -236 8 -119 26 -167 88 -183
239 -5 51 -10 390 -10 753 0 531 -3 664 -13 672 -7 6 -53 12 -102 14 -88 3
-90 3 -99 31 -18 50 -1 62 100 65 69 2 92 6 102 19 8 12 12 64 12 174 0 122 3
161 14 172 15 15 72 17 94 4z m-5768 -342 c30 -10 69 -27 85 -37 17 -10 40
-22 51 -27 51 -23 124 -105 166 -187 23 -46 47 -83 53 -81 6 2 12 69 15 168
l5 164 55 0 55 0 2 -1220 c2 -719 -1 -1226 -6 -1234 -8 -12 -19 -13 -58 -5
l-48 9 -5 497 c-4 431 -10 546 -27 503 -2 -5 -10 -21 -17 -35 -8 -14 -28 -53
-45 -87 -50 -99 -177 -190 -336 -239 -48 -15 -92 -19 -225 -19 -149 0 -172 2
-235 24 -153 54 -282 153 -375 287 -49 70 -120 226 -120 262 0 11 -6 38 -14
60 -24 67 -38 281 -26 406 19 205 85 388 189 523 130 168 333 278 536 292 123
8 259 -2 325 -24z m8005 9 c22 -8 46 -14 54 -14 12 0 128 -54 206 -97 53 -29
181 -167 227 -245 81 -139 115 -250 133 -438 13 -137 5 -296 -21 -386 -8 -28
-14 -58 -14 -68 0 -16 -15 -53 -63 -156 -89 -192 -281 -353 -497 -416 -91 -26
-414 -27 -474 -1 -21 9 -46 17 -55 17 -35 0 -188 89 -261 152 -64 56 -161 176
-179 223 -2 6 -19 43 -37 83 -19 40 -34 81 -34 90 0 10 -6 41 -14 68 -27 92
-36 267 -21 409 16 150 25 189 71 302 19 45 34 84 34 88 0 3 5 11 10 18 6 7
32 41 59 77 87 118 224 223 341 262 25 9 63 22 85 29 85 29 368 31 450 3z
m1935 0 c147 -38 284 -144 341 -264 83 -173 89 -242 89 -960 l0 -570 -24 -6
c-13 -3 -38 -4 -57 -2 l-34 3 -6 605 c-5 477 -10 622 -22 685 -14 78 -31 135
-48 165 -5 8 -15 29 -22 45 -20 43 -114 133 -169 161 -80 41 -217 69 -295 60
-275 -31 -460 -185 -535 -446 -31 -107 -37 -211 -37 -752 l-1 -518 -24 -6
c-13 -3 -38 -4 -57 -2 l-34 3 0 885 0 885 49 3 c32 2 52 -1 57 -10 5 -7 9 -79
9 -160 0 -126 2 -148 15 -148 9 0 20 12 27 28 41 102 88 160 178 222 61 42
140 80 165 80 9 0 26 5 38 12 50 27 294 29 397 2z m-6986 -57 c12 -57 6 -1720
-6 -1734 -11 -13 -74 -18 -102 -7 -14 6 -16 92 -16 878 0 479 4 876 8 883 8
12 54 20 88 15 15 -3 24 -14 28 -35z m3634 -855 l2 -882 -24 -6 c-13 -3 -38
-4 -57 -2 l-34 3 0 885 0 885 30 5 c17 4 41 3 55 0 l25 -6 3 -882z m-5503 866
c2 -13 6 -302 9 -643 4 -688 3 -673 75 -811 63 -121 132 -174 296 -228 63 -20
224 -21 280 -1 22 8 46 15 54 15 8 0 44 15 80 33 133 66 252 217 293 372 9 33
22 83 29 110 10 37 15 194 19 610 l5 560 58 3 57 3 0 -885 0 -886 -24 -6 c-13
-3 -38 -4 -57 -2 l-34 3 -5 163 c-3 89 -8 163 -12 165 -9 3 -44 -44 -53 -73
-32 -103 -189 -223 -360 -276 -47 -15 -92 -19 -210 -19 -132 0 -158 3 -215 23
-208 74 -316 193 -377 412 -16 59 -18 127 -21 709 -2 354 -1 650 2 658 4 8 23
13 55 13 44 0 51 -3 56 -22z m4010 -868 l0 -885 -55 0 -55 0 -3 888 -2 888 57
-3 58 -3 0 -885z m-478 858 c16 -23 6 -95 -19 -129 -12 -18 -93 -121 -178
-228 -86 -108 -178 -225 -205 -261 -27 -36 -52 -67 -55 -70 -4 -3 -73 -90
-154 -195 -80 -104 -156 -201 -167 -214 -12 -14 -51 -63 -87 -110 -37 -48 -72
-90 -78 -96 -6 -5 -48 -59 -94 -120 -46 -60 -99 -127 -117 -148 -18 -20 -33
-46 -33 -57 0 -20 7 -20 589 -20 324 0 596 -3 605 -6 11 -4 16 -19 16 -44 0
-25 -5 -40 -16 -44 -20 -8 -1328 -8 -1348 0 -27 10 -21 84 10 130 15 21 30 41
34 44 5 4 146 182 202 255 4 6 20 26 36 45 16 19 81 103 145 185 65 83 141
180 170 216 28 36 62 79 74 95 30 38 210 267 298 379 39 49 83 106 98 128 15
21 41 53 57 70 38 40 54 72 47 91 -5 13 -74 15 -543 16 -374 0 -542 4 -551 11
-16 14 -17 43 -3 70 10 18 28 19 634 19 487 0 626 -3 633 -12z m6492 -2622 c7
-8 11 -36 9 -63 l-3 -48 -6397 -3 c-6088 -2 -6398 -1 -6399 15 0 10 -3 30 -5
46 -3 15 0 36 6 47 11 20 33 20 6394 20 5487 0 6385 -2 6395 -14z m-8784
-1511 l0 -520 -30 0 -30 0 -3 510 c-1 281 0 516 3 523 3 8 16 12 32 10 l28 -3
0 -520z m4299 509 c8 -20 8 -998 0 -1018 -7 -17 -49 -22 -59 -7 -6 10 -8 291
-6 754 l1 287 29 0 c17 0 31 -6 35 -16z m-7287 -87 l38 -37 0 -283 c0 -253 -2
-286 -18 -310 -29 -45 -66 -57 -180 -59 -125 -2 -159 12 -194 82 -22 42 -23
56 -23 270 0 255 10 314 58 348 39 28 55 31 174 29 l108 -2 37 -38z m287 27
c3 -9 6 -135 6 -282 0 -303 0 -302 75 -302 74 0 75 6 75 319 0 298 -4 281 69
281 20 0 42 -5 49 -12 9 -9 12 -92 12 -310 0 -274 -2 -302 -19 -336 -31 -60
-66 -74 -185 -74 -117 1 -162 15 -189 60 -15 27 -17 64 -19 340 0 170 2 314 6
321 11 18 113 14 120 -5z m794 -51 l3 -63 -54 0 c-38 0 -59 -5 -68 -16 -11
-13 -14 -78 -17 -293 -1 -151 -7 -280 -11 -284 -11 -11 -108 -14 -118 -3 -5 4
-9 134 -11 289 -1 155 -5 287 -7 294 -2 7 -28 13 -62 15 l-58 3 -3 54 c-2 36
1 57 10 63 7 4 99 7 203 5 l190 -2 3 -62z m220 55 c6 -7 12 -42 14 -78 4 -57
20 -195 34 -297 3 -18 9 -33 14 -33 10 0 42 98 65 205 36 170 48 205 73 212
59 14 83 -13 102 -115 5 -29 14 -61 20 -72 5 -10 10 -32 10 -49 0 -17 6 -50
14 -73 8 -24 17 -60 20 -80 4 -21 11 -38 16 -38 5 0 12 17 15 38 3 20 10 62
15 92 5 30 14 105 20 165 11 124 18 135 84 135 66 0 72 -8 58 -82 -6 -35 -14
-81 -16 -103 -7 -49 -31 -218 -51 -345 -8 -52 -17 -117 -21 -143 -4 -40 -10
-50 -32 -58 -15 -6 -46 -8 -70 -4 -33 5 -45 12 -57 35 -8 16 -15 37 -15 47 0
11 -7 46 -16 78 -9 33 -22 89 -29 125 -7 36 -20 81 -28 100 l-14 35 -10 -25
c-15 -35 -33 -106 -43 -165 -5 -27 -13 -63 -18 -80 -6 -16 -13 -51 -17 -77 -3
-25 -12 -52 -20 -58 -8 -7 -40 -13 -71 -14 -68 -1 -80 12 -89 93 -3 31 -11 85
-17 121 -5 36 -14 99 -18 140 -5 41 -14 102 -19 135 -27 152 -33 228 -19 236
20 13 104 11 116 -3z m810 0 c9 -9 12 -103 12 -360 0 -390 6 -360 -75 -362
-24 -1 -46 2 -50 5 -9 10 -13 692 -3 712 10 20 97 24 116 5z m510 0 c7 -7 12
-30 12 -53 0 -54 -13 -65 -77 -65 -29 0 -54 -1 -55 -2 -1 -2 -5 -136 -8 -298
l-5 -294 -32 -7 c-18 -3 -48 -3 -65 0 l-33 7 -3 284 c-1 182 -6 288 -13 296
-6 7 -36 14 -67 16 l-57 3 -3 49 c-5 80 -16 76 201 76 137 0 196 -3 205 -12z
m1060 -31 l37 -37 0 -283 c0 -314 -1 -318 -67 -352 -49 -24 -225 -22 -276 4
-64 32 -72 74 -72 348 0 204 2 236 19 275 32 75 64 87 219 84 l102 -2 38 -37z
m280 31 c9 -9 12 -85 12 -282 0 -308 -1 -306 77 -306 69 0 73 17 73 329 0 227
2 260 16 265 20 8 62 8 92 0 l22 -6 0 -304 c0 -282 -1 -307 -19 -340 -33 -62
-65 -74 -195 -74 l-113 0 -38 33 c-30 26 -39 42 -46 82 -11 71 -11 559 1 589
8 23 15 26 58 26 26 0 53 -5 60 -12z m783 2 c14 -8 19 -21 19 -53 0 -55 -13
-67 -71 -67 -81 0 -79 8 -79 -311 l0 -279 -25 -12 c-17 -8 -37 -8 -63 -2 l-37
9 -3 284 c-1 189 -6 289 -13 298 -7 7 -31 13 -58 13 -58 0 -71 12 -71 65 0 23
5 46 12 53 15 15 360 17 389 2z m449 -8 c60 -32 74 -75 74 -232 0 -114 -3
-141 -19 -175 -27 -53 -70 -76 -153 -82 -120 -8 -111 1 -114 -115 l-3 -102
-30 -8 c-16 -4 -43 -4 -60 0 l-30 8 -3 354 c-2 276 1 355 10 362 7 4 76 8 153
8 117 0 146 -3 175 -18z m314 12 c14 -5 16 -40 16 -283 0 -206 3 -282 13 -294
9 -13 30 -17 92 -19 117 -2 125 -7 125 -67 0 -27 -4 -52 -8 -55 -5 -3 -84 -6
-177 -7 -133 -1 -169 1 -176 12 -5 8 -9 168 -9 356 0 315 1 343 18 352 19 12
82 14 106 5z m662 0 c18 -5 26 -22 44 -92 12 -48 24 -98 26 -112 5 -24 14 -59
48 -181 9 -31 16 -65 16 -77 0 -12 6 -39 14 -59 21 -58 50 -192 43 -199 -10
-11 -97 -8 -108 3 -6 6 -21 40 -33 75 l-22 63 -79 3 c-104 4 -121 -6 -135 -74
-6 -29 -18 -58 -27 -65 -14 -12 -98 -18 -108 -7 -7 7 18 122 60 283 7 28 19
73 25 100 7 28 18 75 26 105 7 30 19 82 27 115 17 69 26 95 40 113 10 12 104
17 143 6z m393 -23 c12 -16 21 -33 21 -37 0 -4 8 -26 19 -48 10 -23 29 -65 42
-93 13 -29 29 -53 37 -53 11 0 42 59 102 197 25 55 37 63 108 63 45 0 64 -18
44 -43 -5 -6 -44 -93 -87 -192 -42 -99 -81 -184 -86 -189 -5 -6 -9 -71 -9
-145 0 -75 -4 -142 -9 -150 -13 -20 -110 -19 -122 0 -5 8 -9 64 -9 124 0 121
-8 160 -51 251 -16 33 -29 63 -29 67 0 3 -16 40 -36 84 -19 43 -40 87 -45 98
-38 85 -34 95 43 95 40 0 49 -4 67 -29z m1399 4 c51 -31 57 -66 57 -345 0
-282 -5 -305 -64 -338 -33 -19 -54 -22 -145 -22 -97 0 -110 2 -145 26 -55 36
-61 70 -61 336 0 241 6 287 41 324 33 35 71 44 184 41 78 -2 107 -7 133 -22z
m286 19 c14 -5 16 -39 16 -278 l0 -273 25 -23 c31 -29 80 -29 109 0 20 20 21
28 17 279 -2 185 0 264 9 280 10 19 18 22 63 19 l52 -3 3 -310 c2 -269 0 -315
-14 -346 -24 -56 -72 -73 -195 -72 -114 2 -150 16 -180 73 -17 32 -19 61 -19
341 0 168 3 309 7 312 8 9 86 9 107 1z m801 -59 l0 -60 -57 -5 c-31 -3 -60 -9
-65 -13 -4 -5 -9 -137 -11 -293 -2 -211 -6 -286 -15 -289 -29 -11 -68 -13 -94
-6 l-28 7 -5 295 -5 294 -60 5 -60 5 -3 49 c-5 81 -17 77 205 74 l198 -3 0
-60z m222 57 c10 -6 13 -81 15 -297 l3 -290 102 -5 c56 -3 105 -9 109 -13 5
-4 9 -31 9 -60 l0 -52 -178 -3 -177 -2 0 358 c0 197 3 362 7 365 9 10 95 8
110 -1z m675 -4 c9 -7 23 -44 33 -83 9 -38 20 -83 25 -100 8 -26 76 -304 85
-345 1 -8 12 -51 24 -94 25 -91 21 -101 -40 -101 -49 0 -73 25 -83 84 -9 55
-35 71 -116 70 -92 -1 -100 -6 -124 -80 l-22 -64 -57 -3 c-57 -3 -57 -3 -57
26 0 16 3 32 8 36 4 4 12 33 19 64 29 138 84 366 108 447 8 28 17 67 20 87 9
56 26 68 99 68 35 0 69 -6 78 -12z m647 -22 c33 -32 51 -79 51 -136 0 -46 -15
-60 -63 -60 -53 0 -77 15 -77 48 0 40 -17 52 -72 52 -57 0 -71 -18 -66 -88 4
-55 5 -56 153 -102 54 -17 105 -36 112 -42 17 -14 18 -225 1 -280 -9 -29 -23
-47 -51 -65 -36 -22 -49 -25 -144 -24 -151 1 -185 23 -202 130 -13 83 -6 93
68 89 54 -3 55 -4 62 -38 4 -18 15 -40 25 -47 20 -14 72 -17 92 -5 30 20 36
128 8 151 -6 5 -61 26 -123 46 -62 20 -118 44 -125 52 -17 20 -16 200 1 260
11 42 45 75 86 86 11 3 68 5 127 4 103 -2 108 -3 137 -31z m545 18 c19 -19 21
-74 4 -97 -9 -11 -31 -17 -68 -19 l-55 -3 -5 -295 -5 -294 -40 -8 c-63 -14
-81 -5 -89 43 -4 22 -6 151 -6 286 1 174 -2 249 -11 259 -7 8 -30 14 -58 14
-26 0 -52 5 -59 12 -19 19 -15 95 6 107 10 6 92 11 194 11 147 0 179 -3 192
-16z"/>
<path d="M2917 9144 c-136 -29 -214 -71 -316 -168 -58 -56 -141 -163 -141
-183 0 -4 -6 -19 -13 -33 -24 -46 -46 -115 -67 -208 -19 -81 -21 -115 -18
-255 3 -89 10 -184 18 -212 62 -243 137 -372 275 -476 65 -51 99 -68 189 -99
75 -26 276 -29 333 -5 19 8 44 15 54 15 33 0 153 69 204 118 66 64 81 85 120
164 77 158 99 299 92 593 -5 241 -19 314 -87 452 -115 231 -380 353 -643 297z"/>
<path d="M10960 9150 c-267 -49 -446 -204 -548 -475 -26 -68 -44 -188 -49
-315 -12 -318 72 -546 263 -712 65 -56 195 -128 232 -128 11 0 37 -7 58 -16
63 -26 287 -15 382 20 234 86 380 254 454 526 18 64 21 104 21 270 -1 216 -12
280 -74 422 -61 141 -186 278 -311 341 -115 58 -311 89 -428 67z"/>
<path d="M2389 5363 c-11 -12 -15 -65 -17 -214 l-3 -199 25 -25 c32 -32 87
-34 116 -5 19 19 20 33 20 221 0 119 -4 208 -10 220 -14 26 -110 28 -131 2z"/>
<path d="M6083 5372 c-26 -16 -33 -69 -33 -242 0 -160 2 -180 19 -201 26 -32
105 -34 127 -4 22 29 16 431 -6 445 -18 12 -90 13 -107 2z"/>
<path d="M7612 5368 c-17 -17 -16 -199 1 -223 11 -14 23 -17 60 -13 72 8 77
17 77 120 0 117 -6 128 -73 128 -29 0 -58 -5 -65 -12z"/>
<path d="M8697 5258 c-2 -18 -12 -63 -22 -100 -10 -37 -15 -78 -11 -92 6 -24
11 -26 57 -26 60 0 65 8 49 87 -29 145 -62 204 -73 131z"/>
<path d="M10369 5364 c-18 -22 -26 -352 -10 -412 9 -33 17 -42 41 -47 46 -10
86 3 99 31 7 16 11 94 11 212 0 223 -3 232 -79 232 -33 0 -53 -5 -62 -16z"/>
<path d="M12467 5247 c-9 -29 -23 -81 -31 -116 -13 -57 -12 -65 3 -80 23 -23
101 -17 102 8 3 45 -4 96 -17 126 -8 19 -14 47 -14 63 0 16 -6 34 -13 40 -10
9 -17 0 -30 -41z"/>
</g>
</svg>
