<?xml version="1.0" standalone="no"?>
<!DOCTYPE svg PUBLIC "-//W3C//DTD SVG 20010904//EN"
 "http://www.w3.org/TR/2001/REC-SVG-20010904/DTD/svg10.dtd">
<svg version="1.0" xmlns="http://www.w3.org/2000/svg"
 width="1306.000000pt" height="543.000000pt" viewBox="0 0 1306.000000 543.000000"
 preserveAspectRatio="xMidYMid meet">

<g transform="translate(0.000000,543.000000) scale(0.100000,-0.100000)"
fill="#000000" stroke="none">
<path d="M0 2715 l0 -2715 6530 0 6530 0 0 2715 0 2715 -6530 0 -6530 0 0
-2715z m4740 2550 c39 -20 53 -49 46 -91 -12 -59 -83 -92 -137 -64 -10 6 -26
24 -34 41 -21 39 -5 93 33 114 35 18 56 18 92 0z m2166 -16 c31 -29 32 -84 3
-119 -18 -20 -30 -25 -71 -25 -41 0 -52 4 -68 25 -22 28 -26 87 -7 111 34 44
101 48 143 8z m1461 21 c66 -23 70 -130 6 -159 -33 -15 -58 -14 -93 4 -52 27
-53 122 -2 150 33 17 50 18 89 5z m-799 -103 c9 -6 12 -53 12 -176 0 -141 3
-171 16 -182 11 -9 53 -12 157 -11 78 1 148 -2 155 -6 8 -6 12 -24 10 -48 l-3
-39 -145 -2 c-80 -2 -155 -5 -167 -8 l-23 -5 0 -688 c1 -558 3 -698 15 -747
28 -116 78 -150 223 -150 80 0 95 -3 104 -18 17 -31 2 -64 -33 -71 -52 -10
-170 -6 -236 8 -119 26 -167 88 -183 239 -5 51 -10 390 -10 753 0 531 -3 664
-13 672 -7 6 -53 12 -102 14 -88 3 -90 3 -99 31 -18 50 -1 62 100 65 69 2 92
6 102 19 8 12 12 64 12 174 0 122 3 161 14 172 15 15 72 17 94 4z m-5788 -338
c160 -48 258 -126 321 -255 23 -47 47 -83 53 -81 7 2 13 59 16 168 l5 164 55
0 55 0 2 -1220 c2 -719 -1 -1226 -6 -1234 -8 -12 -19 -13 -58 -5 l-48 9 -5
500 c-3 275 -6 501 -8 503 -8 9 -22 -2 -31 -25 -17 -42 -74 -146 -91 -166 -25
-30 -142 -113 -190 -134 -116 -52 -146 -57 -330 -57 -164 0 -179 2 -243 26
-319 123 -492 381 -527 782 -30 352 81 681 291 861 125 107 282 174 434 184
130 9 231 2 305 -20z m8025 5 c22 -8 47 -14 55 -14 8 0 33 -9 55 -20 22 -11
44 -19 48 -20 17 0 153 -94 195 -134 99 -94 211 -285 232 -397 5 -28 13 -55
17 -61 3 -6 12 -70 18 -142 14 -143 5 -301 -21 -392 -8 -28 -14 -58 -14 -68 0
-16 -15 -55 -63 -156 -27 -57 -116 -188 -139 -205 -10 -7 -38 -31 -63 -54 -24
-22 -47 -41 -51 -41 -4 0 -15 -6 -23 -14 -27 -24 -153 -82 -221 -102 -90 -26
-401 -27 -470 -1 -25 9 -52 17 -60 17 -9 0 -52 18 -95 41 -130 67 -216 141
-294 254 -28 41 -51 77 -51 81 0 3 -16 40 -35 81 -19 41 -35 83 -35 92 0 10
-6 40 -14 67 -23 78 -35 263 -25 377 24 280 113 479 282 633 61 56 171 124
237 146 25 9 63 22 85 29 84 29 369 30 450 3z m1935 0 c96 -25 197 -83 259
-149 48 -53 111 -153 111 -179 0 -4 6 -22 14 -39 33 -72 40 -196 43 -814 l4
-612 -24 -6 c-13 -4 -39 -5 -58 -3 l-34 3 -6 605 c-3 411 -9 624 -17 665 -18
91 -44 178 -58 195 -6 8 -14 24 -18 35 -10 34 -112 133 -165 159 -96 49 -243
75 -329 59 -171 -33 -249 -70 -347 -168 -78 -77 -120 -151 -163 -290 l-25 -80
-4 -588 -5 -587 -22 -6 c-13 -3 -38 -4 -57 -2 l-34 3 0 885 0 885 52 3 c64 4
62 9 66 -177 1 -96 6 -136 14 -138 7 -3 18 8 24 24 41 102 88 161 179 222 67
46 108 66 180 87 111 33 310 37 420 8z m-7600 -910 l0 -884 -24 -6 c-13 -3
-38 -4 -57 -2 l-34 3 -5 163 c-3 97 -9 163 -15 163 -5 1 -28 -32 -50 -74 -48
-90 -54 -98 -125 -151 -68 -53 -136 -89 -220 -117 -56 -19 -87 -23 -220 -23
-138 -1 -162 2 -220 22 -207 74 -325 204 -376 418 -18 73 -19 125 -19 724 l0
645 52 3 c48 3 53 1 57 -20 3 -13 7 -302 10 -643 4 -585 5 -624 24 -686 38
-126 100 -220 182 -280 41 -30 102 -59 123 -59 8 0 31 -7 50 -15 24 -10 70
-15 137 -15 67 0 113 5 137 15 19 8 42 15 50 15 25 0 98 38 160 84 104 76 179
189 215 321 42 153 42 159 48 725 l5 555 35 5 c19 3 45 4 58 2 l22 -4 0 -884z
m4248 -2 l2 -882 -24 -6 c-13 -3 -38 -4 -57 -2 l-34 3 0 885 0 884 25 6 c14 3
39 3 55 0 l30 -6 3 -882z m-3634 855 c11 -60 6 -1720 -6 -1734 -13 -16 -90
-17 -106 -1 -9 9 -12 217 -12 874 0 474 3 869 6 878 5 12 20 16 59 16 52 0 53
-1 59 -33z m2141 -857 l0 -885 -55 0 -55 0 -3 888 -2 888 57 -3 58 -3 0 -885z
m-477 858 c5 -7 9 -32 7 -55 -2 -38 -20 -73 -67 -128 -33 -39 -295 -371 -343
-435 -27 -36 -52 -67 -55 -70 -3 -3 -71 -88 -150 -190 -79 -102 -187 -239
-239 -304 -53 -66 -137 -173 -188 -238 -50 -65 -105 -134 -122 -154 -17 -19
-31 -44 -31 -54 0 -20 10 -20 589 -20 324 0 596 -3 605 -6 11 -4 16 -19 16
-44 0 -25 -5 -40 -16 -44 -20 -8 -1328 -8 -1348 0 -27 10 -21 84 10 130 15 21
30 41 34 44 3 3 64 79 135 170 71 91 147 188 169 217 23 28 52 66 66 83 14 18
48 61 75 95 28 35 104 133 170 217 65 84 122 155 125 158 8 6 237 299 268 343
13 18 40 52 60 76 58 70 61 75 62 98 l0 22 -542 1 c-377 0 -546 4 -555 11 -16
14 -17 43 -3 70 10 18 28 19 634 19 487 0 626 -3 634 -12z m6492 -2623 c6 -7
10 -35 8 -62 l-3 -48 -6397 -3 c-5115 -2 -6398 0 -6398 10 -1 7 -3 30 -6 51
-4 23 -1 44 6 52 18 22 12772 22 12790 0z m-8785 -1510 l0 -520 -30 0 -30 0
-3 510 c-1 281 0 516 3 523 3 8 16 12 32 10 l28 -3 0 -520z m4300 503 c3 -13
4 -248 3 -523 l-3 -500 -24 -3 c-13 -2 -28 1 -33 6 -8 8 -12 463 -9 930 l1
112 30 0 c22 0 31 -5 35 -22z m-7288 -81 l38 -37 0 -283 c0 -252 -2 -286 -17
-309 -28 -43 -75 -59 -180 -61 -126 -3 -168 15 -198 85 -20 47 -21 63 -18 291
3 219 5 246 23 281 33 64 70 78 202 74 l113 -3 37 -38z m287 27 c3 -9 6 -137
6 -284 0 -266 0 -269 22 -284 33 -24 86 -20 109 7 17 20 18 43 19 293 0 302
-4 284 69 284 20 0 42 -5 49 -12 9 -9 12 -92 12 -310 0 -274 -2 -302 -19 -336
-31 -61 -67 -75 -188 -74 -118 0 -158 13 -185 60 -16 26 -18 65 -19 339 -1
171 1 315 5 322 11 18 113 14 120 -5z m794 -51 l3 -63 -54 0 c-38 0 -59 -5
-68 -16 -10 -13 -14 -79 -17 -293 -2 -156 -7 -280 -12 -285 -11 -11 -107 -12
-118 -1 -4 4 -8 133 -10 288 -1 155 -5 287 -7 294 -2 7 -28 13 -62 15 l-58 3
-3 54 c-2 36 1 57 10 63 7 4 99 7 203 5 l190 -2 3 -62z m220 55 c7 -7 12 -33
12 -58 0 -26 5 -71 10 -101 6 -30 14 -97 19 -147 8 -93 16 -117 29 -95 12 20
39 113 57 198 35 167 48 205 73 212 59 14 83 -13 102 -115 5 -29 14 -61 20
-72 5 -10 10 -32 10 -49 0 -17 6 -50 14 -73 8 -24 17 -60 20 -80 4 -21 11 -38
16 -38 5 0 12 17 15 38 3 20 10 62 15 92 5 30 14 105 20 165 11 124 18 135 84
135 66 0 72 -8 58 -82 -6 -35 -16 -97 -22 -138 -5 -41 -19 -136 -30 -210 -12
-74 -25 -168 -30 -208 -11 -87 -12 -89 -51 -97 -80 -18 -119 13 -134 105 -3
25 -12 65 -20 90 -7 25 -16 63 -20 85 -3 22 -13 62 -22 89 -14 45 -17 48 -29
31 -8 -10 -14 -28 -14 -39 0 -10 -6 -42 -14 -70 -23 -82 -38 -147 -48 -206
-12 -72 -25 -84 -94 -84 -68 -1 -80 12 -89 93 -3 31 -12 94 -20 141 -7 47 -16
112 -19 145 -4 33 -10 83 -16 110 -5 28 -14 90 -20 139 -9 72 -9 91 2 97 20
13 102 11 116 -3z m810 0 c9 -9 12 -103 12 -360 0 -390 6 -360 -75 -362 -24
-1 -46 2 -50 5 -9 10 -12 692 -3 712 10 20 97 24 116 5z m510 0 c15 -15 16
-72 2 -99 -9 -15 -22 -19 -65 -19 -30 0 -56 -1 -57 -2 -1 -2 -5 -136 -8 -298
l-5 -294 -32 -7 c-18 -3 -48 -3 -65 0 l-33 7 -3 284 c-1 182 -6 288 -13 296
-6 7 -36 14 -67 16 l-57 3 -3 49 c-5 80 -16 76 201 76 137 0 196 -3 205 -12z
m1060 -31 l37 -37 3 -227 c6 -331 0 -362 -70 -407 -41 -26 -222 -24 -276 3
-64 32 -72 73 -72 347 0 209 2 236 20 277 33 75 64 86 223 83 l97 -2 38 -37z
m280 31 c9 -9 12 -85 12 -282 0 -308 -1 -306 77 -306 69 0 73 17 73 329 0 227
2 260 16 265 20 8 62 8 92 0 l22 -6 0 -302 c-1 -269 -3 -305 -19 -339 -30 -64
-63 -77 -195 -77 l-113 0 -44 39 -44 39 -2 307 c-2 194 1 314 8 326 7 15 21
19 57 19 27 0 53 -5 60 -12z m783 2 c14 -8 19 -21 19 -53 0 -55 -13 -67 -71
-67 -81 0 -79 8 -79 -311 l0 -279 -24 -11 c-16 -8 -37 -8 -63 -2 l-38 9 -3
284 c-1 189 -6 288 -13 297 -7 7 -31 13 -58 13 -58 0 -71 12 -71 65 0 23 5 46
12 53 15 15 360 17 389 2z m466 -19 c46 -35 57 -77 57 -226 0 -109 -3 -136
-19 -170 -28 -56 -71 -78 -166 -83 -43 -3 -83 -10 -88 -16 -6 -7 -12 -54 -13
-106 l-3 -94 -35 -9 c-22 -5 -47 -4 -63 2 l-27 11 0 354 c0 274 3 356 13 360
6 3 80 4 162 3 142 -2 152 -3 182 -26z m297 23 c14 -5 16 -40 16 -283 0 -206
3 -282 13 -294 9 -13 30 -17 92 -19 117 -2 125 -7 125 -67 0 -27 -4 -52 -8
-55 -4 -2 -83 -6 -175 -8 -140 -2 -170 0 -177 12 -6 9 -10 162 -10 357 0 315
1 343 18 352 19 12 82 14 106 5z m679 -9 c8 -7 18 -36 22 -62 4 -26 13 -63 21
-82 8 -18 14 -45 14 -58 0 -14 7 -46 15 -72 8 -25 21 -73 29 -106 8 -33 19
-80 25 -105 61 -241 60 -227 12 -232 -60 -5 -77 5 -96 59 -36 102 -25 93 -117
93 -53 -1 -89 -5 -100 -14 -10 -7 -22 -36 -28 -64 -6 -28 -17 -56 -25 -62 -15
-12 -100 -18 -111 -8 -6 7 6 75 31 163 8 28 20 77 28 110 8 33 21 83 27 110
21 84 41 167 55 225 15 64 24 90 38 108 14 18 141 16 160 -3z m376 -14 c12
-16 21 -33 21 -37 0 -4 8 -26 19 -48 10 -23 29 -65 42 -94 34 -74 47 -67 97
48 48 110 65 145 76 152 6 4 35 8 64 8 55 0 75 -16 54 -43 -5 -6 -29 -57 -52
-112 -51 -119 -95 -219 -115 -258 -11 -21 -15 -65 -15 -160 0 -73 -4 -137 -8
-143 -11 -17 -53 -24 -92 -16 l-35 8 -5 139 c-4 114 -9 148 -26 185 -12 25
-31 68 -42 96 -18 44 -58 134 -92 209 -39 85 -35 95 42 95 40 0 49 -4 67 -29z
m1399 4 c51 -31 57 -66 57 -345 0 -284 -4 -305 -66 -339 -35 -20 -55 -23 -144
-23 -95 0 -106 2 -144 28 -23 15 -45 38 -49 53 -13 48 -8 543 6 576 24 58 73
75 207 72 78 -2 107 -7 133 -22z m286 19 c14 -5 16 -39 16 -278 l0 -273 25
-23 c31 -29 80 -29 109 0 20 20 21 28 17 279 -4 305 -4 303 72 299 l52 -3 3
-310 c3 -357 1 -369 -71 -401 -32 -15 -63 -19 -139 -17 -113 1 -149 16 -179
73 -17 32 -19 61 -19 342 0 236 3 307 13 311 18 8 83 8 101 1z m801 -59 l0
-60 -57 -5 c-31 -3 -60 -9 -65 -13 -4 -5 -10 -138 -13 -295 l-5 -286 -43 -8
c-24 -4 -54 -3 -67 2 l-25 9 -2 293 -3 293 -60 5 -60 5 -3 49 c-5 81 -17 77
205 74 l198 -3 0 -60z m233 -231 c2 -249 5 -293 17 -298 9 -3 53 -6 99 -7 46
-1 89 -5 97 -9 14 -10 20 -108 7 -116 -9 -6 -340 -6 -345 0 -6 5 -4 707 2 717
4 5 32 9 63 7 l57 -3 3 -291z m670 283 c10 -12 36 -106 62 -222 5 -22 21 -85
35 -140 15 -55 30 -118 34 -140 5 -22 18 -76 30 -119 14 -51 18 -83 12 -89 -5
-5 -28 -10 -51 -11 -50 -1 -74 22 -84 83 -9 56 -34 71 -121 71 -38 0 -76 -4
-83 -9 -8 -5 -24 -37 -36 -72 -23 -69 -38 -78 -103 -71 -28 4 -33 8 -33 31 0
15 3 31 8 35 4 4 12 33 19 64 29 138 84 366 108 447 8 28 17 67 20 87 9 57 26
68 104 68 44 0 72 -5 79 -13z m639 -17 c33 -26 53 -81 53 -142 0 -44 -15 -58
-63 -58 -53 0 -77 15 -77 48 0 40 -17 52 -72 52 -57 0 -71 -18 -66 -88 4 -55
5 -56 156 -103 65 -20 106 -38 112 -50 14 -25 12 -224 -2 -271 -9 -29 -23 -47
-52 -65 -36 -23 -48 -25 -144 -24 -150 2 -184 24 -201 130 -13 78 -5 91 54 91
59 0 75 -8 75 -36 0 -48 74 -83 118 -56 29 19 36 116 10 148 -5 7 -60 29 -124
49 -83 27 -118 43 -126 59 -15 27 -15 198 1 252 11 41 41 70 86 86 11 4 67 6
125 5 96 -2 109 -4 137 -27z m547 14 c19 -19 21 -74 4 -97 -9 -11 -31 -17 -68
-19 l-55 -3 -5 -295 -5 -294 -35 -8 c-19 -4 -47 -5 -61 -2 -36 7 -39 33 -38
332 1 177 -2 247 -11 257 -8 9 -30 15 -59 15 -59 0 -71 12 -71 71 0 37 4 49
18 52 9 3 97 5 194 6 148 1 179 -2 192 -15z"/>
<path d="M1440 4745 c-144 -32 -233 -81 -331 -182 -62 -64 -129 -152 -129
-170 0 -4 -6 -19 -13 -33 -24 -46 -46 -115 -67 -208 -19 -81 -21 -115 -18
-255 3 -89 10 -184 18 -212 62 -243 137 -372 275 -476 65 -51 99 -68 189 -99
75 -26 276 -29 333 -5 19 8 44 15 54 15 52 0 203 104 268 185 18 22 85 152 96
185 44 137 57 267 52 500 -5 246 -18 314 -87 455 -68 139 -197 246 -354 292
-73 21 -208 25 -286 8z"/>
<path d="M9500 4754 c-152 -28 -268 -80 -361 -164 -185 -166 -269 -404 -256
-724 13 -297 108 -504 300 -650 43 -33 172 -96 196 -96 10 0 35 -7 54 -15 57
-24 242 -20 336 6 257 71 424 250 503 539 18 64 21 104 21 270 0 165 -3 206
-21 270 -36 133 -69 204 -135 294 -125 169 -301 261 -517 271 -52 2 -106 2
-120 -1z"/>
<path d="M905 950 c-12 -23 -15 -68 -15 -213 0 -182 0 -184 25 -211 30 -33 85
-36 115 -6 19 19 20 33 20 221 0 119 -4 208 -10 220 -9 15 -22 19 -65 19 -50
0 -56 -2 -70 -30z"/>
<path d="M4596 964 c-25 -25 -27 -49 -24 -243 3 -181 3 -183 28 -203 30 -24
97 -19 118 9 20 28 13 430 -8 443 -24 15 -97 12 -114 -6z"/>
<path d="M6132 968 c-17 -17 -16 -199 1 -223 11 -14 23 -17 60 -13 72 8 77 17
77 120 0 117 -6 128 -73 128 -29 0 -58 -5 -65 -12z"/>
<path d="M7220 866 c0 -14 -5 -37 -11 -53 -17 -45 -31 -132 -24 -153 5 -16 15
-20 56 -20 35 0 51 4 55 15 6 16 -6 82 -33 178 -16 58 -43 79 -43 33z"/>
<path d="M8889 964 c-18 -22 -26 -352 -10 -412 10 -36 16 -42 46 -48 49 -9 80
1 93 31 8 17 12 91 12 213 0 223 -3 232 -79 232 -33 0 -53 -5 -62 -16z"/>
<path d="M10987 847 c-9 -29 -23 -80 -31 -114 -17 -80 -7 -97 54 -95 24 1 46
4 48 7 10 10 1 104 -13 139 -8 19 -15 48 -15 64 0 16 -6 34 -13 40 -10 9 -17
0 -30 -41z"/>
</g>
</svg>
